<?xml version="1.0" encoding="UTF-8"?>
<svg width="50px" height="50px" viewBox="0 0 50 50" version="1.1" xmlns="http://www.w3.org/2000/svg" xmlns:xlink="http://www.w3.org/1999/xlink">
    <title>F1F75FA3-1E70-41FF-A894-EF244B69683B</title>
    <g id="Home" stroke="none" stroke-width="1" fill="none" fill-rule="evenodd">
        <g id="Home-(Developer-Test)" transform="translate(-1400, -600)">
            <g id="banner-slider-arrow__right" transform="translate(1400, 600)">
                <g id="Group" transform="translate(15, 20)" fill="#FFFFFF" fill-rule="nonzero">
                    <path d="M19.86781,4.68115121 L19.86781,4.68115121 L15.3224613,0.158108357 C15.159183,-0.0316150299 14.8722349,-0.0537319337 14.6815743,0.108782608 C14.4909136,0.271258281 14.4686874,0.55679567 14.6320048,0.746519057 C14.647239,0.764204806 14.6638012,0.780724462 14.6815743,0.795844805 L18.4496712,4.54996571 L0.454523149,4.54996571 C0.203511998,4.54996571 0,4.75247725 0,5.00229332 C0,5.25210938 0.203511998,5.45458205 0.454523149,5.45458205 L18.4496712,5.45458205 L14.6815743,9.20415519 C14.4909136,9.36663087 14.4686874,9.65216826 14.6320048,9.84189164 C14.7953223,10.031615 15.0822312,10.0537319 15.2728919,9.89121739 C15.290665,9.87605818 15.3072663,9.85957739 15.3224613,9.84189164 L19.867849,5.31884879 C20.0440568,5.14249661 20.0440568,4.85758113 19.86781,4.68115121 Z" id="Path"></path>
                </g>
                <rect id="Rectangle" stroke="#FFFFFF" x="0.5" y="0.5" width="49" height="49"></rect>
            </g>
        </g>
    </g>
</svg>