<?xml version="1.0" encoding="UTF-8"?>
<svg width="15px" height="15px" viewBox="0 0 15 15" version="1.1" xmlns="http://www.w3.org/2000/svg" xmlns:xlink="http://www.w3.org/1999/xlink">
    <title>48680C8D-6AE2-4560-A247-C04037333314</title>
    <g id="Home" stroke="none" stroke-width="1" fill="none" fill-rule="evenodd">
        <g id="Mobile-Nav-(Developer-Test)" transform="translate(-355, -41)" fill="#FFFFFF" fill-rule="nonzero">
            <g id="close" transform="translate(355, 41)">
                <path d="M0.732564445,15 C0.436291261,15 0.169166517,14.8216062 0.0557802031,14.5478846 C-0.0576061107,14.274163 0.00508220233,13.959089 0.214606607,13.7496168 L13.7494777,0.214548291 C14.0355379,-0.0715160968 14.4993332,-0.0715160968 14.7853934,0.214548291 C15.0714536,0.500612678 15.0714536,0.964414689 14.7853934,1.25047908 L1.25052228,14.7855476 C1.1132696,14.9230858 0.926869429,15.0002616 0.732564445,15 L0.732564445,15 Z" id="Path"></path>
                <path d="M14.2674356,15 C14.0731306,15.0002616 13.8867304,14.9230858 13.7494777,14.7855476 L0.214606607,1.25047908 C-0.0714536081,0.964414689 -0.0714536081,0.500612678 0.214606607,0.214548291 C0.500666822,-0.0715160968 0.964462068,-0.0715160968 1.25052228,0.214548291 L14.7853934,13.7496168 C14.9949178,13.959089 15.0576061,14.274163 14.9442198,14.5478846 C14.8308335,14.8216062 14.5637087,15 14.2674356,15 L14.2674356,15 Z" id="Path"></path>
            </g>
        </g>
    </g>
</svg>