<?xml version="1.0" encoding="UTF-8"?>
<svg width="19px" height="14px" viewBox="0 0 19 14" version="1.1" xmlns="http://www.w3.org/2000/svg" xmlns:xlink="http://www.w3.org/1999/xlink">
    <title>8F58A8EF-32A4-4136-9E21-751D80683F7C</title>
    <g id="Home" stroke="none" stroke-width="1" fill="none" fill-rule="evenodd">
        <g id="Home-(Mobile-Developer-Test)" transform="translate(-351, -42)" fill="#15161A" fill-rule="nonzero">
            <g id="menu" transform="translate(351, 42)">
                <path d="M19,0.7 C19,1.12 18.7285714,1.4 18.3214286,1.4 L0.678571429,1.4 C0.271428571,1.4 0,1.12 0,0.7 C0,0.28 0.271428571,0 0.678571429,0 L18.3214286,0 C18.7285714,0 19,0.28 19,0.7 Z M15.6071429,6.3 L0.678571429,6.3 C0.271428571,6.3 0,6.58 0,7 C0,7.42 0.271428571,7.7 0.678571429,7.7 L15.6071429,7.7 C16.0142857,7.7 16.2857143,7.42 16.2857143,7 C16.2857143,6.58 16.0142857,6.3 15.6071429,6.3 Z M9.5,12.6 L0.678571429,12.6 C0.271428571,12.6 0,12.88 0,13.3 C0,13.72 0.271428571,14 0.678571429,14 L9.5,14 C9.90714286,14 10.1785714,13.72 10.1785714,13.3 C10.1785714,12.88 9.90714286,12.6 9.5,12.6 Z" id="Shape"></path>
            </g>
        </g>
    </g>
</svg>