<?xml version="1.0" encoding="UTF-8"?>
<svg width="42px" height="42px" viewBox="0 0 42 42" version="1.1" xmlns="http://www.w3.org/2000/svg" xmlns:xlink="http://www.w3.org/1999/xlink">
    <title>FAC656C4-A4CD-43BB-B51B-33E756946562</title>
    <g id="Home" stroke="none" stroke-width="1" fill="none" fill-rule="evenodd">
        <g id="Home-(Developer-Test)" transform="translate(-1409, -28)">
            <g id="search" transform="translate(1410, 29)">
                <rect id="Rectangle" stroke="#FFFFFF" stroke-width="0.666666667" fill="#008E36" x="-0.333333333" y="-0.333333333" width="40.6666667" height="40.6666667"></rect>
                <g transform="translate(11, 11)" fill="#FFFFFF" fill-rule="nonzero">
                    <path d="M4.96993602,4.09633594 C4.71034214,3.83653125 4.28917006,3.83653125 4.02957619,4.09633594 C3.06573197,5.06017969 2.59200127,6.40286719 2.72967321,7.78035937 C2.76402088,8.12351953 3.05311087,8.37931641 3.3907165,8.37931641 C3.4129001,8.37931641 3.43525949,8.37819141 3.45744309,8.37597656 C3.82299796,8.33941406 4.08965825,8.01330469 4.05309573,7.64799609 C3.95511521,6.66907031 4.28941616,5.71721484 4.96993602,5.03666016 C5.22974083,4.77710156 5.22974083,4.35589453 4.96993602,4.09633594 Z" id="Path"></path>
                    <path d="M7.60345684,0 C3.4108962,0 0,3.41089453 0,7.60345312 C0,11.7960117 3.4108962,15.2069062 7.60345684,15.2069062 C11.7960175,15.2069062 15.2069137,11.7960117 15.2069137,7.60345312 C15.2069137,3.41089453 11.7959823,0 7.60345684,0 Z M7.60345684,13.8768398 C4.14422077,13.8768398 1.33006706,11.0626875 1.33006706,7.60345313 C1.33006706,4.14421875 4.14422077,1.33006641 7.60345684,1.33006641 C11.062482,1.33006641 13.8768466,4.14421875 13.8768466,7.60345313 C13.8768466,11.0626875 11.0626929,13.8768398 7.60345684,13.8768398 Z" id="Shape"></path>
                    <path d="M17.8051728,16.8648047 L12.9726274,12.0322969 C12.7128226,11.7724922 12.2920724,11.7724922 12.0322676,12.0322969 C11.7724628,12.2918906 11.7724628,12.7130625 12.0322676,12.9726562 L16.8648129,17.8051641 C16.9947153,17.9350664 17.164731,18 17.3349928,18 C17.5052546,18 17.6752703,17.9350664 17.8051728,17.8051641 C18.0649424,17.5455703 18.0649424,17.1243984 17.8051728,16.8648047 Z" id="Path"></path>
                </g>
            </g>
        </g>
    </g>
</svg>