<?xml version="1.0" encoding="UTF-8"?>
<svg width="42px" height="42px" viewBox="0 0 42 42" version="1.1" xmlns="http://www.w3.org/2000/svg" xmlns:xlink="http://www.w3.org/1999/xlink">
    <title>7AEC2E81-D853-4AEE-A0C9-DB5CC6353AA1</title>
    <g id="Home" stroke="none" stroke-width="1" fill="none" fill-rule="evenodd">
        <g id="Home-(Developer-Test)" transform="translate(-1409, -4686)">
            <g id="youtube" transform="translate(1410, 4687)">
                <rect id="Rectangle" stroke="#FFFFFF" stroke-width="0.666666667" fill="#008E36" x="-0.333333333" y="-0.333333333" width="40.6666667" height="40.6666667"></rect>
                <g id="Group" transform="translate(14, 15)" fill="#FFFFFF" fill-rule="nonzero">
                    <path d="M13.8048132,1.63659627 C13.7313255,1.01847304 13.1536095,0.425750252 12.5491644,0.346343733 C8.86325974,-0.115447911 5.13603102,-0.115447911 1.45132263,0.346343733 C0.846364891,0.425577929 0.268648882,1.01847304 0.195161163,1.63659627 C-0.0650537211,3.90199119 -0.0650537211,6.09852578 0.195161163,8.36340373 C0.268648882,8.98152696 0.846364891,9.57480118 1.45132263,9.65365627 C5.13603102,10.1154479 8.86339646,10.1154479 12.5491644,9.65365627 C13.1536095,9.57493904 13.7313255,8.98152696 13.8048132,8.36340373 C14.0650623,6.09873256 14.0650623,3.90199119 13.8048132,1.63659627 Z M5.83324147,7.35317635 L5.83324147,2.64754741 L9.3333077,5.00044804 L5.83324147,7.35317635 Z" id="Shape"></path>
                </g>
            </g>
        </g>
    </g>
</svg>